<svg width="141" height="32" viewBox="0 0 141 32" fill="none" xmlns="http://www.w3.org/2000/svg">
<g clip-path="url(#clip0_1234_12447)">
<path d="M40.5538 13.1666V2.47266H44.7368C46.1219 2.47266 47.2191 2.80044 48.0145 3.45601C48.81 4.11158 49.2077 5.02665 49.2077 6.20121C49.2077 6.9797 49.0294 7.63527 48.6729 8.19523C48.3163 8.7552 47.8088 9.17859 47.1368 9.4654C46.4648 9.75221 45.6694 9.90245 44.723 9.90245H41.3767L42.0624 9.2059V13.1666H40.5264H40.5538ZM42.0898 9.3698L41.4041 8.61862H44.6956C45.6831 8.61862 46.4237 8.41376 46.9311 7.99037C47.4385 7.56698 47.6854 6.9797 47.6854 6.21487C47.6854 5.45004 47.4385 4.86275 46.9311 4.43937C46.4237 4.01598 45.6831 3.81111 44.6956 3.81111H41.4041L42.0898 3.04628V9.3698ZM47.7265 13.1666L44.9973 9.28785H46.6431L49.3997 13.1666H47.7265Z" fill="#71182E"/>
<path d="M51.7041 13.1666V2.47266H59.2746V3.79745H53.2265V11.8282H59.4803V13.153H51.6904L51.7041 13.1666ZM53.0893 8.38644V7.08896H58.6163V8.38644H53.0893Z" fill="#71182E"/>
<path d="M61.9766 13.1666V2.47266H63.5126V11.8282H69.3276V13.153H61.9766V13.1666Z" fill="#71182E"/>
<path d="M75.7316 13.2894C74.9088 13.2894 74.1545 13.1529 73.455 12.8797C72.7556 12.6066 72.1521 12.2241 71.6447 11.7325C71.1373 11.2408 70.7395 10.6672 70.4515 9.99794C70.1635 9.34237 70.0264 8.61851 70.0264 7.82636C70.0264 7.03422 70.1635 6.32402 70.4515 5.65479C70.7395 4.99922 71.1373 4.41194 71.6447 3.92026C72.1521 3.42858 72.7556 3.04617 73.455 2.77301C74.1545 2.49986 74.9088 2.36328 75.7454 2.36328C76.582 2.36328 77.3225 2.49986 78.0083 2.77301C78.694 3.04617 79.2974 3.42858 79.8186 3.92026C80.3398 4.41194 80.7375 4.98556 81.0118 5.65479C81.2998 6.31036 81.4369 7.04787 81.4369 7.84002C81.4369 8.63217 81.2998 9.35603 81.0118 10.0253C80.7375 10.6808 80.326 11.2681 79.8186 11.7598C79.2974 12.2515 78.694 12.6339 78.0083 12.907C77.3225 13.1802 76.5682 13.3168 75.7454 13.3168L75.7316 13.2894ZM75.7316 11.9373C76.3214 11.9373 76.87 11.8417 77.3774 11.6369C77.8848 11.432 78.3237 11.1452 78.694 10.7764C79.0643 10.4077 79.366 9.97062 79.5717 9.46529C79.7775 8.95995 79.8872 8.4273 79.8872 7.82636C79.8872 7.22542 79.7775 6.69277 79.5717 6.18744C79.366 5.6821 79.0643 5.25871 78.694 4.8763C78.3237 4.49388 77.8848 4.22073 77.3774 4.01586C76.87 3.811 76.3214 3.71539 75.7316 3.71539C75.1419 3.71539 74.5796 3.811 74.0722 4.01586C73.5647 4.22073 73.1259 4.50754 72.7419 4.8763C72.3579 5.24506 72.0698 5.6821 71.8641 6.18744C71.6584 6.69277 71.5487 7.22542 71.5487 7.82636C71.5487 8.4273 71.6584 8.95995 71.8641 9.46529C72.0698 9.97062 72.3716 10.394 72.7419 10.7764C73.1259 11.1452 73.5647 11.432 74.0722 11.6369C74.5796 11.8417 75.1282 11.9373 75.7316 11.9373Z" fill="#71182E"/>
<path d="M88.5685 13.2894C87.7456 13.2894 87.005 13.1528 86.3056 12.8797C85.6198 12.6065 85.0164 12.2241 84.509 11.7324C84.0015 11.2408 83.6038 10.6671 83.3158 9.99791C83.0278 9.32868 82.8906 8.60482 82.8906 7.81268C82.8906 7.02053 83.0278 6.29667 83.3158 5.62744C83.6038 4.95822 84.0015 4.38459 84.509 3.89292C85.0164 3.40124 85.6198 3.01882 86.3056 2.74567C86.9913 2.47251 87.7456 2.33594 88.5685 2.33594C89.3914 2.33594 90.1594 2.47251 90.8588 2.75933C91.5583 3.04614 92.148 3.45587 92.6417 4.00218L91.6406 4.95822C91.2291 4.53483 90.7628 4.20704 90.2554 4.00218C89.7479 3.79731 89.1994 3.68805 88.6096 3.68805C88.0199 3.68805 87.4439 3.78365 86.9364 3.98852C86.429 4.19339 85.9764 4.4802 85.5924 4.84895C85.2084 5.21771 84.9204 5.65476 84.7147 6.16009C84.509 6.66543 84.3992 7.21174 84.3992 7.79902C84.3992 8.3863 84.509 8.93261 84.7147 9.43794C84.9204 9.94328 85.2221 10.3803 85.5924 10.7491C85.9627 11.1178 86.4153 11.4047 86.9364 11.6095C87.4576 11.8144 88.0062 11.91 88.6096 11.91C89.2131 11.91 89.7342 11.8007 90.2554 11.5959C90.7628 11.391 91.2291 11.0632 91.6406 10.6262L92.6417 11.5822C92.148 12.1285 91.5583 12.5519 90.8588 12.8387C90.1594 13.1255 89.3914 13.2621 88.5548 13.2621L88.5685 13.2894Z" fill="#71182E"/>
<path d="M92.8203 13.1666L97.6753 2.47266H99.1976L104.08 13.1666H102.475L98.1416 3.33309H98.7587L94.4249 13.1666H92.8477H92.8203ZM94.8912 10.4897L95.3027 9.27419H101.351L101.79 10.4897H94.8912Z" fill="#71182E"/>
<path d="M107.261 13.1667V3.81113H103.586V2.48633H112.459V3.81113H108.784V13.1667H107.261Z" fill="#71182E"/>
<path d="M114.133 13.1666V2.47266H115.669V13.1666H114.133Z" fill="#71182E"/>
<path d="M123.733 13.2894C122.91 13.2894 122.155 13.1529 121.456 12.8797C120.757 12.6066 120.153 12.2241 119.646 11.7325C119.138 11.2408 118.741 10.6672 118.453 9.99794C118.164 9.34237 118.027 8.61851 118.027 7.82636C118.027 7.03422 118.164 6.32402 118.453 5.65479C118.741 4.99922 119.138 4.41194 119.646 3.92026C120.153 3.42858 120.757 3.04617 121.456 2.77301C122.155 2.49986 122.91 2.36328 123.746 2.36328C124.583 2.36328 125.324 2.49986 126.009 2.77301C126.695 3.04617 127.298 3.42858 127.82 3.92026C128.341 4.41194 128.738 4.98556 129.013 5.65479C129.287 6.32402 129.438 7.04787 129.438 7.84002C129.438 8.63217 129.301 9.35603 129.013 10.0253C128.725 10.6945 128.327 11.2681 127.82 11.7598C127.298 12.2515 126.695 12.6339 126.009 12.907C125.324 13.1802 124.569 13.3168 123.746 13.3168L123.733 13.2894ZM123.733 11.9373C124.322 11.9373 124.871 11.8417 125.378 11.6369C125.886 11.432 126.325 11.1452 126.695 10.7764C127.065 10.4077 127.353 9.97062 127.573 9.46529C127.792 8.95995 127.888 8.4273 127.888 7.82636C127.888 7.22542 127.778 6.69277 127.573 6.18744C127.367 5.6821 127.079 5.25871 126.695 4.8763C126.311 4.49388 125.886 4.22073 125.378 4.01586C124.871 3.811 124.322 3.71539 123.733 3.71539C123.143 3.71539 122.581 3.811 122.073 4.01586C121.566 4.22073 121.127 4.50754 120.743 4.8763C120.359 5.24506 120.071 5.6821 119.865 6.18744C119.659 6.69277 119.55 7.22542 119.55 7.82636C119.55 8.4273 119.659 8.95995 119.865 9.46529C120.071 9.97062 120.373 10.394 120.743 10.7764C121.127 11.1452 121.566 11.432 122.073 11.6369C122.581 11.8417 123.129 11.9373 123.733 11.9373Z" fill="#71182E"/>
<path d="M131.77 13.1666V2.47266H133.031L140.135 11.2546H139.477V2.47266H141.013V13.1666H139.751L132.647 4.38473H133.306V13.1666H131.77Z" fill="#71182E"/>
<path d="M40.9795 29.5143V18.8203H41.7612V29.5143H40.9795Z" fill="#71182E"/>
<path d="M45.5049 29.5143V18.8203H46.1632L53.8159 28.5446H53.4594V18.8203H54.2411V29.5143H53.5965L45.93 19.79H46.2866V29.5143H45.5049Z" fill="#71182E"/>
<path d="M61.9355 29.5143V18.8203H65.7894C66.6945 18.8203 67.4625 18.9569 68.1071 19.2437C68.7517 19.5305 69.2454 19.9402 69.5883 20.4729C69.9312 21.0055 70.1095 21.6611 70.1095 22.4259C70.1095 23.1908 69.9312 23.8054 69.5883 24.3517C69.2454 24.898 68.738 25.3077 68.1071 25.5945C67.4763 25.8813 66.6945 26.0179 65.7894 26.0179H62.3744L62.731 25.6492V29.5143H61.9493H61.9355ZM62.7173 25.7038L62.3607 25.3214H65.7756C66.9277 25.3214 67.8054 25.0755 68.4088 24.5702C69.0123 24.0649 69.3003 23.3547 69.3003 22.4396C69.3003 21.5245 68.9986 20.8007 68.4088 20.2953C67.8054 19.79 66.9277 19.5442 65.7756 19.5442H62.3607L62.7173 19.1618V25.7175V25.7038Z" fill="#71182E"/>
<path d="M70.4111 29.5143L75.3484 18.8203H76.1301L81.0674 29.5143H80.2308L75.5678 19.312H75.9107L71.2614 29.5143H70.4111ZM72.2215 26.5096L72.482 25.854H78.9142L79.1748 26.5096H72.2215Z" fill="#71182E"/>
<path d="M83.0146 29.5143V18.8203H86.8685C88.2125 18.8203 89.2822 19.1344 90.0503 19.7627C90.8183 20.3909 91.2023 21.2787 91.2023 22.4259C91.2023 23.1635 91.024 23.8054 90.6811 24.338C90.3383 24.8707 89.8308 25.2804 89.1999 25.5809C88.5691 25.8813 87.7873 26.0179 86.8822 26.0179H83.4672L83.8238 25.6492V29.5143H83.0421H83.0146ZM83.7964 25.7038L83.4398 25.335H86.8547C88.0068 25.335 88.8845 25.0755 89.488 24.5702C90.0914 24.0649 90.3794 23.3547 90.3794 22.4259C90.3794 21.4972 90.0777 20.787 89.488 20.2817C88.8845 19.7764 88.0068 19.5305 86.8547 19.5305H83.4398L83.7964 19.1481V25.7038ZM90.4754 29.5143L87.6776 25.6355H88.5691L91.3669 29.5143H90.4754Z" fill="#71182E"/>
<path d="M94.0547 29.5143V18.8203H94.8364V29.5143H94.0547Z" fill="#71182E"/>
<path d="M101.406 29.5962C100.61 29.5962 99.856 29.4596 99.1428 29.1865C98.4297 28.9133 97.8811 28.5719 97.4971 28.1348L97.8537 27.5612C98.2239 27.9436 98.7314 28.2577 99.3623 28.5172C99.9931 28.7767 100.679 28.9133 101.392 28.9133C102.105 28.9133 102.695 28.8177 103.147 28.6265C103.6 28.4353 103.943 28.1895 104.162 27.8753C104.382 27.5612 104.492 27.2061 104.492 26.8237C104.492 26.3593 104.368 26.0042 104.121 25.7311C103.874 25.4579 103.559 25.2394 103.161 25.0755C102.763 24.9116 102.325 24.775 101.858 24.6658C101.392 24.5565 100.912 24.4336 100.432 24.3107C99.952 24.1877 99.5131 24.0239 99.1154 23.819C98.7177 23.6141 98.4022 23.341 98.1554 22.9859C97.9085 22.6308 97.7988 22.1801 97.7988 21.6201C97.7988 21.1148 97.9359 20.6367 98.1965 20.2134C98.4571 19.79 98.8823 19.4349 99.4446 19.1754C100.007 18.9159 100.72 18.7793 101.611 18.7793C102.201 18.7793 102.791 18.8612 103.367 19.0388C103.943 19.2163 104.437 19.4485 104.848 19.7353L104.56 20.3636C104.108 20.0631 103.628 19.8309 103.106 19.6807C102.585 19.5305 102.091 19.4622 101.611 19.4622C100.926 19.4622 100.363 19.5578 99.9108 19.749C99.4583 19.9402 99.1291 20.1997 98.9097 20.5138C98.6903 20.828 98.5942 21.1967 98.5942 21.5928C98.5942 22.0571 98.7177 22.4122 98.9508 22.6991C99.1977 22.9722 99.5131 23.1907 99.9108 23.3546C100.309 23.5185 100.747 23.6551 101.227 23.7644C101.707 23.8736 102.187 23.9965 102.654 24.1195C103.12 24.2424 103.559 24.4063 103.957 24.6111C104.354 24.816 104.67 25.0892 104.917 25.4306C105.164 25.772 105.287 26.2227 105.287 26.7691C105.287 27.2744 105.15 27.7388 104.876 28.1621C104.601 28.5992 104.176 28.9406 103.614 29.2001C103.052 29.4596 102.325 29.5962 101.433 29.5962H101.406Z" fill="#71182E"/>
<path d="M29.6232 0H6.67865C4.95926 0 3.56543 1.38805 3.56543 3.1003V25.9496C3.56543 27.6619 4.95926 29.0499 6.67865 29.0499H29.6232C31.3426 29.0499 32.7364 27.6619 32.7364 25.9496V3.1003C32.7364 1.38805 31.3426 0 29.6232 0Z" fill="#71182E"/>
<path d="M27.6486 1.46094H4.70404C2.98466 1.46094 1.59082 2.84899 1.59082 4.56124V27.4106C1.59082 29.1228 2.98466 30.5109 4.70404 30.5109H27.6486C29.368 30.5109 30.7618 29.1228 30.7618 27.4106V4.56124C30.7618 2.84899 29.368 1.46094 27.6486 1.46094Z" fill="white"/>
<path d="M26.0578 2.93652H3.11322C1.39384 2.93652 0 4.32457 0 6.03682V28.8862C0 30.5984 1.39384 31.9865 3.11322 31.9865H26.0578C27.7772 31.9865 29.171 30.5984 29.171 28.8862V6.03682C29.171 4.32457 27.7772 2.93652 26.0578 2.93652Z" fill="#71182E"/>
<path d="M12.1104 23.6275V11.9365H16.9242C18.4876 11.9365 19.722 12.3053 20.5997 13.0428C21.4912 13.7803 21.93 14.791 21.93 16.1021C21.93 16.9626 21.7243 17.7001 21.3266 18.3147C20.9289 18.9293 20.3528 19.4073 19.6122 19.7351C18.8717 20.0629 17.9802 20.2268 16.9379 20.2268H13.3172L14.291 19.2434V23.6275H12.1104ZM14.2773 19.4756L13.3035 18.4376H16.8282C17.7882 18.4376 18.5151 18.2327 18.9951 17.823C19.4751 17.4133 19.722 16.8396 19.722 16.1021C19.722 15.3646 19.4751 14.7773 18.9951 14.3813C18.5151 13.9852 17.7882 13.7803 16.8282 13.7803H13.3035L14.2773 12.715V19.4756ZM19.7768 23.6275L16.8145 19.3936H19.146L22.1357 23.6275H19.7905H19.7768Z" fill="white"/>
<path d="M10.6834 11.9365H9.50391V23.6139H10.6834V11.9365Z" fill="white"/>
<path d="M8.33832 11.9229H7.88574V23.6002H8.33832V11.9229Z" fill="white"/>
</g>
<defs>
<clipPath id="clip0_1234_12447">
<rect width="141" height="32" fill="white"/>
</clipPath>
</defs>
</svg>
