<?xml version="1.0" encoding="UTF-8"?>
<svg id="Calque_2" data-name="Calque 2" xmlns="http://www.w3.org/2000/svg" viewBox="0 0 102.81 23.43">
  <defs>
    <style>
      .cls-1 {
        fill: #1d1d1b;
      }

      .cls-2 {
        fill: #fff;
      }
    </style>
  </defs>
  <g id="Calque_1-2" data-name="Calque 1">
    <g>
      <path class="cls-2" d="M29.57,9.64V1.81h3.05c1.01,0,1.81.24,2.39.72s.87,1.15.87,2.01c0,.57-.13,1.05-.39,1.46-.26.41-.63.72-1.12.93s-1.07.32-1.76.32h-2.44l.5-.51v2.9h-1.12ZM30.69,6.86l-.5-.55h2.4c.72,0,1.26-.15,1.63-.46.37-.31.55-.74.55-1.3s-.18-.99-.55-1.3-.91-.46-1.63-.46h-2.4l.5-.56v4.63ZM34.8,9.64l-1.99-2.84h1.2l2.01,2.84h-1.22Z"/>
      <path class="cls-2" d="M37.7,9.64V1.81h5.52v.97h-4.41v5.88h4.56v.97h-5.68ZM38.71,6.14v-.95h4.03v.95h-4.03Z"/>
      <path class="cls-2" d="M45.19,9.64V1.81h1.12v6.85h4.24v.97h-5.36Z"/>
      <path class="cls-2" d="M55.22,9.73c-.6,0-1.15-.1-1.66-.3s-.95-.48-1.32-.84c-.37-.36-.66-.78-.87-1.27-.21-.48-.31-1.01-.31-1.59s.1-1.1.31-1.59c.21-.48.5-.91.87-1.27.37-.36.81-.64,1.32-.84.51-.2,1.06-.3,1.67-.3s1.15.1,1.65.3c.5.2.94.48,1.32.84s.67.78.87,1.27c.21.48.31,1.02.31,1.6s-.1,1.11-.31,1.6c-.2.48-.5.91-.87,1.27-.38.36-.82.64-1.32.84-.5.2-1.05.3-1.65.3ZM55.22,8.74c.43,0,.83-.07,1.2-.22s.69-.36.96-.63c.27-.27.49-.59.64-.96.15-.37.23-.76.23-1.2s-.08-.83-.23-1.2c-.15-.37-.37-.68-.64-.96s-.59-.48-.96-.63-.77-.22-1.2-.22-.84.07-1.21.22-.69.36-.97.63-.49.59-.64.96-.23.76-.23,1.2.08.83.23,1.2.37.68.64.96c.28.27.6.48.97.63s.77.22,1.21.22Z"/>
      <path class="cls-2" d="M64.58,9.73c-.6,0-1.14-.1-1.65-.3-.5-.2-.94-.48-1.31-.84-.37-.36-.66-.78-.87-1.27s-.31-1.02-.31-1.6.1-1.11.31-1.6.5-.91.87-1.27c.37-.36.81-.64,1.31-.84.5-.2,1.05-.3,1.65-.3s1.16.1,1.67.31c.51.21.94.51,1.3.91l-.73.7c-.3-.31-.64-.55-1.01-.7-.37-.15-.77-.23-1.2-.23s-.85.07-1.22.22c-.37.15-.7.36-.98.63-.28.27-.49.59-.64.96s-.23.77-.23,1.2.08.83.23,1.2.37.69.64.96c.27.27.6.48.98.63.38.15.78.22,1.22.22s.82-.08,1.2-.23c.37-.15.71-.39,1.01-.71l.73.7c-.36.4-.79.71-1.3.92-.51.21-1.07.31-1.68.31Z"/>
      <path class="cls-2" d="M67.68,9.64l3.54-7.83h1.11l3.56,7.83h-1.17l-3.16-7.2h.45l-3.16,7.2h-1.15ZM69.19,7.68l.3-.89h4.41l.32.89h-5.03Z"/>
      <path class="cls-2" d="M78.21,9.64V2.79h-2.68v-.97h6.47v.97h-2.68v6.85h-1.11Z"/>
      <path class="cls-2" d="M83.22,9.64V1.81h1.12v7.83h-1.12Z"/>
      <path class="cls-2" d="M90.22,9.73c-.6,0-1.15-.1-1.66-.3-.51-.2-.95-.48-1.32-.84-.37-.36-.66-.78-.87-1.27-.21-.48-.31-1.01-.31-1.59s.1-1.1.31-1.59c.21-.48.5-.91.87-1.27.37-.36.81-.64,1.32-.84.51-.2,1.06-.3,1.67-.3s1.15.1,1.65.3c.5.2.94.48,1.32.84.38.36.67.78.87,1.27s.31,1.02.31,1.6-.1,1.11-.31,1.6-.5.91-.87,1.27c-.38.36-.82.64-1.32.84-.5.2-1.05.3-1.65.3ZM90.22,8.74c.43,0,.83-.07,1.2-.22.37-.15.69-.36.96-.63.27-.27.48-.59.64-.96s.23-.76.23-1.2-.08-.83-.23-1.2-.36-.68-.64-.96-.59-.48-.96-.63c-.37-.15-.77-.22-1.2-.22s-.84.07-1.21.22-.69.36-.97.63-.49.59-.64.96c-.15.37-.23.76-.23,1.2s.08.83.23,1.2c.15.37.37.68.64.96.28.27.6.48.97.63s.77.22,1.21.22Z"/>
      <path class="cls-2" d="M96.08,9.64V1.81h.92l5.18,6.43h-.48V1.81h1.12v7.83h-.92l-5.18-6.43h.48v6.43h-1.12Z"/>
    </g>
    <g>
      <path class="cls-2" d="M29.88,21.61v-7.83h.57v7.83h-.57Z"/>
      <path class="cls-2" d="M33.18,21.61v-7.83h.48l5.58,7.12h-.26v-7.12h.57v7.83h-.47l-5.59-7.12h.26v7.12h-.57Z"/>
      <path class="cls-2" d="M45.16,21.61v-7.83h2.81c.66,0,1.22.1,1.69.31s.83.51,1.08.9c.25.39.38.87.38,1.43s-.13,1.01-.38,1.41c-.25.4-.62.7-1.08.91s-1.03.31-1.69.31h-2.49l.26-.27v2.83h-.57ZM45.73,18.82l-.26-.28h2.49c.84,0,1.48-.18,1.92-.55.44-.37.65-.89.65-1.56s-.22-1.2-.65-1.57c-.44-.37-1.08-.55-1.92-.55h-2.49l.26-.28v4.8Z"/>
      <path class="cls-2" d="M51.34,21.61l3.6-7.83h.57l3.6,7.83h-.61l-3.4-7.47h.25l-3.39,7.47h-.62ZM52.66,19.41l.19-.48h4.69l.19.48h-5.07Z"/>
      <path class="cls-2" d="M60.53,21.61v-7.83h2.81c.98,0,1.76.23,2.32.69.56.46.84,1.11.84,1.95,0,.54-.13,1.01-.38,1.4-.25.39-.62.69-1.08.91s-1.03.32-1.69.32h-2.49l.26-.27v2.83h-.57ZM61.1,18.82l-.26-.27h2.49c.84,0,1.48-.19,1.92-.56.44-.37.65-.89.65-1.57s-.22-1.2-.65-1.57c-.44-.37-1.08-.55-1.92-.55h-2.49l.26-.28v4.8ZM65.97,21.61l-2.04-2.84h.65l2.04,2.84h-.65Z"/>
      <path class="cls-2" d="M68.58,21.61v-7.83h.57v7.83h-.57Z"/>
      <path class="cls-2" d="M73.94,21.67c-.58,0-1.13-.1-1.65-.3-.52-.2-.92-.45-1.2-.77l.26-.42c.27.28.64.51,1.1.7s.96.29,1.48.29.95-.07,1.28-.21c.33-.14.58-.32.74-.55s.24-.49.24-.77c0-.34-.09-.6-.27-.8-.18-.2-.41-.36-.7-.48s-.61-.22-.95-.3c-.34-.08-.69-.17-1.04-.26s-.67-.21-.96-.36c-.29-.15-.52-.35-.7-.61-.18-.26-.26-.59-.26-1,0-.37.1-.72.29-1.03s.5-.57.91-.76c.41-.19.93-.29,1.58-.29.43,0,.86.06,1.28.19.42.13.78.3,1.08.51l-.21.46c-.33-.22-.68-.39-1.06-.5-.38-.11-.74-.16-1.09-.16-.5,0-.91.07-1.24.21-.33.14-.57.33-.73.56s-.23.5-.23.79c0,.34.09.6.26.81.18.2.41.36.7.48s.61.22.96.3c.35.08.7.17,1.04.26.34.09.66.21.95.36.29.15.52.35.7.6.18.25.27.58.27.98,0,.37-.1.71-.3,1.02-.2.32-.51.57-.92.76-.41.19-.94.29-1.59.29Z"/>
    </g>
    <rect class="cls-2" x="2.6" y="0" width="21.27" height="21.27" rx="2.27" ry="2.27"/>
    <rect class="cls-1" x="1.16" y="1.07" width="21.27" height="21.27" rx="2.27" ry="2.27"/>
    <rect class="cls-2" x="0" y="2.15" width="21.27" height="21.27" rx="2.27" ry="2.27"/>
    <path class="cls-1" d="M8.83,17.3v-8.56h3.51c1.14,0,2.04.27,2.68.81.65.54.97,1.28.97,2.24,0,.63-.15,1.17-.44,1.62-.29.45-.71.8-1.25,1.04-.54.24-1.19.36-1.95.36h-2.64l.71-.72v3.21h-1.59ZM10.41,14.26l-.71-.76h2.57c.7,0,1.23-.15,1.58-.45.35-.3.53-.72.53-1.26s-.18-.97-.53-1.26c-.35-.29-.88-.44-1.58-.44h-2.57l.71-.78v4.95ZM14.42,17.3l-2.16-3.1h1.7l2.18,3.1h-1.71Z"/>
    <rect class="cls-1" x="6.93" y="8.74" width=".86" height="8.55"/>
    <rect class="cls-1" x="5.75" y="8.73" width=".33" height="8.55"/>
  </g>
</svg>